<svg id="Layer_1" data-name="Layer 1" xmlns="http://www.w3.org/2000/svg" viewBox="0 0 128 128"><defs><style>.cls-1{fill:#fff;}.cls-2{fill:#4353ff;}</style></defs><title>pages-wp</title><rect class="cls-1" width="128" height="128"/><path class="cls-2" d="M38.08,31.29c-4.3,0-7.86,1.87-8.22,6.35h4.29c.22-1.91,1.36-3,3.67-3,2.6,0,3.48,1.28,3.48,3.85v1H38.92c-5.5,0-9.83,1.62-9.83,6.1,0,4,2.89,5.68,6.42,5.68a6.69,6.69,0,0,0,5.87-2.71v2.35h4.37V38.3C45.75,33.05,42.37,31.29,38.08,31.29ZM41.3,44.17c0,2.46-2,3.89-4.73,3.89-2.2,0-3.08-1.06-3.08-2.68,0-2.35,2.16-3.12,5.54-3.12H41.3Z"/><path class="cls-2" d="M64.35,31.69v2.94a6.61,6.61,0,0,0-6.16-3.34c-5,0-8.63,4-8.63,9.43V41c0,5.54,3.71,9.14,8.52,9.14a7.48,7.48,0,0,0,6.27-3.56v2.82c0,3.45-1.91,5.18-5.36,5.18-2.9,0-4.36-1.1-4.73-3H49.78C50.3,55.22,53,57.93,59,57.93s9.72-2.82,9.76-8.47V31.69Zm.15,9.14c0,3.67-2.24,5.87-5.32,5.87-2.87,0-5.07-2.2-5.07-5.76v-.29c0-3.49,1.91-5.87,5.21-5.87s5.18,2.16,5.18,5.8Z"/><path class="cls-2" d="M90.66,41c0-6.86-4.29-9.69-9.06-9.69-5.47,0-9.54,4-9.54,9.91v.29c0,6.06,4.07,9.76,9.72,9.76,4.92,0,8.19-2.2,8.81-6.23H86.3C86,46.89,84.57,48,81.89,48c-3.3,0-5.14-2.05-5.28-5.69h14Zm-14-1.69c.44-3,2.24-4.77,4.92-4.77S86,36,86.26,39.29Z"/><path class="cls-2" d="M104.79,45.53c0-1.58-1.28-2.17-4.11-2.64-5.06-.81-6.93-2.24-6.93-5.84,0-3.85,3.59-5.76,7.19-5.76,3.93,0,7,1.47,7.52,5.8h-4.11c-.37-1.76-1.36-2.57-3.41-2.57s-3,.92-3,2.28.92,1.94,4,2.45c4.51.7,7.19,1.8,7.19,5.88,0,3.89-2.75,6.12-7.67,6.12s-7.85-2.27-8-6.34h4.19c.22,1.94,1.21,3.08,3.81,3.08C103.73,48,104.79,47.14,104.79,45.53Z"/><path class="cls-2" d="M13.92,109.17c-1.44,0-2.53,1-2.53,2.94v.12c0,2,1,2.92,2.55,2.92s2.37-1,2.37-2.92v-.12C16.31,110.15,15.23,109.17,13.92,109.17Zm32,.14c-.44,0-1.35.13-1.83,1.82,2.28-.3,2.4-.85,2.44-1.17v0A.61.61,0,0,0,45.89,109.31Zm8.13.23c-.68,0-1.35,1-1.64,1.74a10.09,10.09,0,0,0-.53,2.71,1.63,1.63,0,0,0,1.12.35c.77,0,1.57-1,1.82-2.44v0C55,110.43,54.69,109.54,54,109.54Zm17.66,0c-1.11,0-1.58,1.32-1.72,2.19s-.28,2.64.93,2.64,1.64-1.52,1.75-2.52v0C72.75,110.68,72.66,109.54,71.68,109.52Z"/><path class="cls-2" d="M38.08,31.29c-4.3,0-7.86,1.87-8.22,6.35h4.29c.22-1.91,1.36-3,3.67-3,2.6,0,3.48,1.28,3.48,3.85v1H38.92c-5.5,0-9.83,1.62-9.83,6.1,0,4,2.89,5.68,6.42,5.68a6.69,6.69,0,0,0,5.87-2.71v2.35h4.37V38.3C45.75,33.05,42.37,31.29,38.08,31.29ZM41.3,44.17c0,2.46-2,3.89-4.73,3.89-2.2,0-3.08-1.06-3.08-2.68,0-2.35,2.16-3.12,5.54-3.12H41.3Z"/><path class="cls-2" d="M64.35,31.69v2.94a6.61,6.61,0,0,0-6.16-3.34c-5,0-8.63,4-8.63,9.43V41c0,5.54,3.71,9.14,8.52,9.14a7.48,7.48,0,0,0,6.27-3.56v2.82c0,3.45-1.91,5.18-5.36,5.18-2.9,0-4.36-1.1-4.73-3H49.78C50.3,55.22,53,57.93,59,57.93s9.72-2.82,9.76-8.47V31.69Zm.15,9.14c0,3.67-2.24,5.87-5.32,5.87-2.87,0-5.07-2.2-5.07-5.76v-.29c0-3.49,1.91-5.87,5.21-5.87s5.18,2.16,5.18,5.8Z"/><path class="cls-2" d="M90.66,41c0-6.86-4.29-9.69-9.06-9.69-5.47,0-9.54,4-9.54,9.91v.29c0,6.06,4.07,9.76,9.72,9.76,4.92,0,8.19-2.2,8.81-6.23H86.3C86,46.89,84.57,48,81.89,48c-3.3,0-5.14-2.05-5.28-5.69h14Zm-14-1.69c.44-3,2.24-4.77,4.92-4.77S86,36,86.26,39.29Z"/><path class="cls-2" d="M109.05,45.13c0,3.89-2.75,6.12-7.67,6.12s-7.85-2.27-8-6.34h4.19c.22,1.94,1.21,3.08,3.81,3.08,2.39,0,3.45-.85,3.45-2.46s-1.28-2.17-4.11-2.64c-5.06-.81-6.93-2.24-6.93-5.84,0-3.85,3.59-5.76,7.19-5.76,3.93,0,7,1.47,7.52,5.8h-4.11c-.37-1.76-1.36-2.57-3.41-2.57s-3,.92-3,2.28.92,1.94,4,2.45C106.37,40,109.05,41.05,109.05,45.13Z"/><path class="cls-2" d="M128,13V0H0V128H128V82.22H10V50.89h4.48v-10h3.67c5.61,0,9.61-2.46,9.61-8v-.15c0-5.51-3.85-8.11-9.72-8.11H10V13ZM78.38,110.28s.18,3,.18,3.24l1.26-3.27a3.19,3.19,0,0,1,3-2.39s.7,5.4.73,5.66l1-3.26v0a3.14,3.14,0,0,1,3.06-2.37L85.2,113.8A3.31,3.31,0,0,1,82,116s-.74-5.07-.74-5.19c0,.12-1.06,2.79-1.06,2.79a3.32,3.32,0,0,1-3.12,2.4l-1.33-8.19A2.67,2.67,0,0,1,78.38,110.28ZM67.6,111.36a4.55,4.55,0,0,1,4.26-3.64,3.23,3.23,0,0,1,3.27,3.49c0,2.26-1.62,5-4.43,5S67.05,113.58,67.6,111.36Zm-.79-4-.8,6.44c-.2,1.66-1.26,3-2.77,3h-.1l.27-1.42,1.4-11.23C65.88,104.19,67.06,105.41,66.81,107.4ZM58,109.53v-.28a1.5,1.5,0,0,1,1.21-1.38h0v-.05c.27-2.2,1.31-3.61,4.64-3.61,0,0-.15.89-.21,1.15a.87.87,0,0,1-.89.68c-.85.09-1.1.66-1.22,1.74v.09h1.65l0,.31A1.42,1.42,0,0,1,62,109.54h-.52l-.72,6c-.23,1.76-1.22,3-2.77,3h-.12l.29-1.38,1-7.67Zm-7.72-2.34c.23-1.83,1.37-3,2.77-3l-.6,4.92A3.22,3.22,0,0,1,55,107.65c1.14,0,2.28.75,2.3,3.11,0,2.59-1.63,5.34-4,5.34a2.33,2.33,0,0,1-2-1,2.66,2.66,0,0,1-2.13.83Zm-4.33.47c1.73,0,2.73,1.1,2.73,2.13s-.34,2.43-4.79,2.87c0,1.3.71,1.62,1.41,1.62a2.13,2.13,0,0,0,1.11-.28,1.65,1.65,0,0,1,2.11.46,4.83,4.83,0,0,1-3.72,1.62c-1.81,0-3.6-1.34-3.27-4.16A4.54,4.54,0,0,1,46,107.66Zm-13.22,2.6s.18,3,.18,3.24l1.26-3.27a3.18,3.18,0,0,1,3-2.39s.7,5.4.73,5.66l1-3.26A3.19,3.19,0,0,1,42,107.87l-2.43,5.93A3.31,3.31,0,0,1,36.46,116s-.74-5.07-.74-5.19l-1.08,2.79a3.3,3.3,0,0,1-3.12,2.4l-1.37-8.21A2.68,2.68,0,0,1,32.75,110.26Zm-13-2,2.38,5.57,2.15-5.57h1.26l-4.29,10.46H20.05l1.46-3.5-3-7Zm-9.59-3.7h1.23v5a3.19,3.19,0,0,1,2.63-1.44c2,0,3.53,1.48,3.53,3.9v.12c0,2.37-1.4,4-3.53,4a3,3,0,0,1-2.63-1.41V116H10.2Zm4.28-76.15H18c3.12,0,4.95,1.21,4.95,4.33v.15c0,2.89-1.72,4.47-4.95,4.47H14.48Z"/><path class="cls-2" d="M38.08,31.29c-4.3,0-7.86,1.87-8.22,6.35h4.29c.22-1.91,1.36-3,3.67-3,2.6,0,3.48,1.28,3.48,3.85v1H38.92c-5.5,0-9.83,1.62-9.83,6.1,0,4,2.89,5.68,6.42,5.68a6.69,6.69,0,0,0,5.87-2.71v2.35h4.37V38.3C45.75,33.05,42.37,31.29,38.08,31.29ZM41.3,44.17c0,2.46-2,3.89-4.73,3.89-2.2,0-3.08-1.06-3.08-2.68,0-2.35,2.16-3.12,5.54-3.12H41.3Z"/><path class="cls-2" d="M64.35,31.69v2.94a6.61,6.61,0,0,0-6.16-3.34c-5,0-8.63,4-8.63,9.43V41c0,5.54,3.71,9.14,8.52,9.14a7.48,7.48,0,0,0,6.27-3.56v2.82c0,3.45-1.91,5.18-5.36,5.18-2.9,0-4.36-1.1-4.73-3H49.78C50.3,55.22,53,57.93,59,57.93s9.72-2.82,9.76-8.47V31.69Zm.15,9.14c0,3.67-2.24,5.87-5.32,5.87-2.87,0-5.07-2.2-5.07-5.76v-.29c0-3.49,1.91-5.87,5.21-5.87s5.18,2.16,5.18,5.8Z"/><path class="cls-2" d="M90.66,41c0-6.86-4.29-9.69-9.06-9.69-5.47,0-9.54,4-9.54,9.91v.29c0,6.06,4.07,9.76,9.72,9.76,4.92,0,8.19-2.2,8.81-6.23H86.3C86,46.89,84.57,48,81.89,48c-3.3,0-5.14-2.05-5.28-5.69h14Zm-14-1.69c.44-3,2.24-4.77,4.92-4.77S86,36,86.26,39.29Z"/><path class="cls-2" d="M101.86,39.25c-3-.51-4-1.06-4-2.45s1.14-2.28,3-2.28,3,.81,3.41,2.57h4.11c-.48-4.33-3.59-5.8-7.52-5.8-3.6,0-7.19,1.91-7.19,5.76,0,3.6,1.87,5,6.93,5.84,2.83.47,4.11,1.06,4.11,2.64S103.73,48,101.34,48c-2.6,0-3.59-1.14-3.81-3.08H93.34c.19,4.07,3.08,6.34,8,6.34s7.67-2.23,7.67-6.12C109.05,41.05,106.37,40,101.86,39.25Z"/></svg>