<?xml version="1.0" encoding="utf-8"?>
<!-- Generator: Adobe Illustrator 23.0.4, SVG Export Plug-In . SVG Version: 6.00 Build 0)  -->
<svg version="1.1" id="Layer_1" xmlns="http://www.w3.org/2000/svg" xmlns:xlink="http://www.w3.org/1999/xlink" x="0px" y="0px"
	 viewBox="0 0 1393.1 221" style="enable-background:new 0 0 1393.1 221;" xml:space="preserve">
<style type="text/css">
	.st0{fill:#4353FF;}
	.st1{fill:#333333;}
</style>
<path class="st0" d="M272,88.9c0-14.5-14.1-29.9-38.5-29.9c-27.4,0-57.5,20.1-62.1,60.2c-4.7,40.5,20.5,58.5,45.9,58.5
	s38.7-9.9,52.3-23.1c-11.7-14.7-26.8-7.9-29.7-6.4c-3.2,1.6-7.3,3.8-15.7,3.8c-9.8,0-19.8-4.4-19.8-22.7
	C267.2,123.1,272,103.4,272,88.9z M240.9,91.3c-0.4,4.5-2.2,12.2-34,16.5c6.7-23.8,19.5-25.6,25.4-25.6
	C237.8,82.2,241.3,86.5,240.9,91.3z M134.5,95.2c0,0-13.5,42.4-14.6,45.9c-0.4-3.6-10.3-79.7-10.3-79.7c-23,0-35.3,16.4-41.8,33.7
	c0,0-16.4,42.5-17.8,46.1c-0.1-3.3-2.5-45.6-2.5-45.6C46.1,74.4,26.7,61.5,11,61.5l19,115.3c24.1-0.1,37.1-16.4,43.9-33.7
	c0,0,14.5-37.5,15.1-39.2c0.1,1.6,10.4,72.9,10.4,72.9c24.2,0,37.2-15.3,44.2-32l33.9-83.3C153.6,61.5,141,77.8,134.5,95.2z
	 M360.8,58.8c-14.9,0-26.3,8.1-35.9,20v-0.1l8.6-69.3c-19.8,0-35.9,17.2-39,42.8l-15,123.7c11.4,0,23.5-3.3,30-11.7
	c5.8,7.5,14.5,13.5,27.4,13.5c33.4,0,56.3-38.8,56.3-75.2C393,69.3,376.9,58.8,360.8,58.8z M357.7,118.3
	c-3.5,20.3-14.8,34.1-25.7,34.1c-11,0-15.7-4.9-15.7-4.9c2.1-17.8,3.4-28.7,7.4-38.1S337.2,85,347.1,85
	C356.8,85,361.2,97.9,357.7,118.3z M476.6,61.5h-23.3l0.1-1.2c1.6-15.2,5.2-23.2,17.1-24.5c8.1-0.8,11.7-5,12.6-9.6
	c0.7-3.6,2.9-16.1,2.9-16.1c-46.8-0.3-61.5,19.9-65.3,50.7l-0.1,0.7h-0.5c-7.6,0-16,8.6-17.4,19.5l-0.5,4h15.6l-13.1,108.2l-4,19.4
	c0.5,0,1.1,0.1,1.6,0.1c21.9-0.8,35.9-18.1,39-43.2L451.5,85h7.3c7.2,0,15.6-7.2,17.1-19.2L476.6,61.5z M597.8,59.5
	c-26.9,0-52.3,19.8-60.1,50.9s4,67.9,43.6,67.9c39.5,0,62.3-38.3,62.3-70.2C643.6,76.4,622.1,59.5,597.8,59.5z M608.7,117.3
	c-1.4,14.1-7.6,35.5-24.6,35.5c-17.1,0-14.7-25-13-36.9c1.8-12.7,8.9-30.8,24.2-30.8C609,85.1,610.3,101.4,608.7,117.3z M776.5,95.2
	c0,0-13.5,42.4-14.6,45.9c-0.4-3.6-10.3-79.7-10.3-79.7c-23,0-35.3,16.4-41.8,33.7c0,0-16.4,42.5-17.8,46.1
	c-0.1-3.3-2.5-45.6-2.5-45.6c-1.4-21.2-20.8-34.1-36.5-34.1l18.9,115.3c24.1-0.1,37.1-16.4,43.9-33.7c0,0,14.5-37.5,15-39.2
	c0.1,1.6,10.4,72.9,10.4,72.9c24.2,0,37.2-15.3,44.2-32l33.9-83.3C795.5,61.5,782.9,77.8,776.5,95.2z M498.6,10.1L479,168.2l0,0
	l-4,19.5c0.5,0,1.1,0.1,1.6,0.1l0,0c21.1-0.3,36.1-18.8,38.9-42.1L526.8,55C530.2,27.3,513.7,10.1,498.6,10.1z"/>
<g>
	<path class="st1" d="M952.8,108c-7.7,6.4-18.7,9.6-33,9.6h-27.4V165H865V33.3h56.5c13,0,23.4,3.4,31.2,10.2
		c7.8,6.8,11.6,17.3,11.6,31.5C964.3,90.6,960.5,101.6,952.8,108z M931.7,60.6c-3.5-2.9-8.4-4.4-14.6-4.4h-24.8V95h24.8
		c6.3,0,11.2-1.6,14.6-4.7c3.5-3.2,5.2-8.2,5.2-15C937,68.4,935.2,63.5,931.7,60.6z"/>
	<path class="st1" d="M1022.9,105.8c4.7-0.6,8.1-1.3,10.2-2.2c3.7-1.5,5.5-4,5.5-7.2c0-4-1.4-6.7-4.2-8.3c-2.8-1.5-6.9-2.3-12.4-2.3
		c-6.1,0-10.4,1.5-12.9,4.5c-1.8,2.2-3,5.2-3.6,8.9h-24.6c0.5-8.5,2.9-15.5,7.2-21c6.8-8.6,18.4-12.9,34.8-12.9
		c10.7,0,20.2,2.1,28.5,6.3c8.3,4.2,12.5,12.2,12.5,23.9v44.7c0,3.1,0.1,6.8,0.2,11.3c0.2,3.3,0.7,5.6,1.5,6.8
		c0.8,1.2,2.1,2.2,3.8,2.9v3.8h-27.7c-0.8-2-1.3-3.8-1.6-5.5c-0.3-1.7-0.5-3.7-0.7-5.9c-3.5,3.8-7.6,7.1-12.2,9.7
		c-5.5,3.2-11.7,4.7-18.7,4.7c-8.9,0-16.2-2.5-22-7.5c-5.8-5-8.7-12.2-8.7-21.4c0-12,4.6-20.6,13.9-26c5.1-2.9,12.6-5,22.5-6.3
		L1022.9,105.8z M1038.5,117.7c-1.6,1-3.3,1.8-4.9,2.5c-1.7,0.6-3.9,1.2-6.8,1.7l-5.8,1.1c-5.4,1-9.3,2.1-11.7,3.5
		c-4,2.3-6,5.9-6,10.8c0,4.3,1.2,7.5,3.7,9.4c2.4,1.9,5.4,2.9,8.9,2.9c5.6,0,10.7-1.6,15.4-4.8s7.1-9.1,7.3-17.6V117.7z"/>
	<path class="st1" d="M1134.2,67.5c6.2,2.6,11.2,7.3,15,14.1v-14h24.8V160c0,12.6-2.1,22-6.3,28.4c-7.3,11-21.2,16.4-41.8,16.4
		c-12.4,0-22.6-2.4-30.5-7.3c-7.9-4.9-12.2-12.2-13-21.9h27.7c0.7,3,1.9,5.1,3.5,6.4c2.7,2.3,7.4,3.5,13.8,3.5
		c9.2,0,15.3-3.1,18.4-9.2c2-3.9,3-10.5,3-19.8v-6.3c-2.4,4.2-5.1,7.3-7.9,9.4c-5.1,3.9-11.6,5.8-19.7,5.8c-12.5,0-22.5-4.4-30-13.2
		c-7.5-8.8-11.2-20.7-11.2-35.7c0-14.5,3.6-26.6,10.8-36.5c7.2-9.9,17.4-14.8,30.6-14.8C1126.4,65.3,1130.6,66.1,1134.2,67.5z
		 M1142.9,137.4c4.1-4.5,6.1-11.7,6.1-21.5c0-9.2-1.9-16.3-5.8-21.1c-3.9-4.8-9.1-7.2-15.6-7.2c-8.9,0-15,4.2-18.4,12.6
		c-1.8,4.5-2.7,10-2.7,16.5c0,5.7,0.9,10.7,2.8,15.1c3.4,8.2,9.6,12.3,18.5,12.3C1133.8,144.1,1138.8,141.9,1142.9,137.4z"/>
	<path class="st1" d="M1261.3,69.6c6.8,3,12.4,7.8,16.8,14.4c4,5.8,6.6,12.5,7.8,20.1c0.7,4.5,1,10.9,0.8,19.3h-70.9
		c0.4,9.8,3.8,16.6,10.2,20.5c3.9,2.4,8.6,3.7,14,3.7c5.8,0,10.5-1.5,14.1-4.5c2-1.6,3.7-3.8,5.2-6.7h26c-0.7,5.8-3.8,11.6-9.4,17.6
		c-8.7,9.5-20.9,14.2-36.6,14.2c-13,0-24.4-4-34.3-12c-9.9-8-14.9-21-14.9-39c0-16.9,4.5-29.8,13.4-38.8s20.5-13.5,34.8-13.5
		C1246.9,65,1254.5,66.6,1261.3,69.6z M1223.2,91.6c-3.6,3.7-5.9,8.7-6.8,15.1h43.9c-0.5-6.8-2.7-11.9-6.8-15.4
		c-4.1-3.5-9.1-5.2-15.1-5.2C1231.9,86,1226.8,87.9,1223.2,91.6z"/>
	<path class="st1" d="M1319.3,133.9c0.5,4.5,1.7,7.7,3.5,9.6c3.2,3.4,9,5.1,17.6,5.1c5,0,9-0.7,12-2.2c3-1.5,4.4-3.7,4.4-6.7
		c0-2.9-1.2-5-3.6-6.5c-2.4-1.5-11.3-4-26.6-7.7c-11.1-2.7-18.9-6.2-23.4-10.3c-4.5-4-6.8-9.9-6.8-17.5c0-9,3.5-16.7,10.6-23.2
		c7.1-6.5,17-9.7,29.9-9.7c12.2,0,22.1,2.4,29.8,7.3c7.7,4.9,12.1,13.2,13.2,25.1h-25.5c-0.4-3.3-1.3-5.9-2.8-7.8
		c-2.8-3.5-7.6-5.2-14.3-5.2c-5.6,0-9.5,0.9-11.9,2.6c-2.4,1.7-3.5,3.8-3.5,6.1c0,2.9,1.3,5,3.8,6.3c2.5,1.4,11.4,3.7,26.6,7.1
		c10.1,2.4,17.7,6,22.8,10.8c5,4.9,7.5,11,7.5,18.3c0,9.6-3.6,17.5-10.8,23.6c-7.2,6.1-18.3,9.2-33.3,9.2c-15.3,0-26.7-3.2-34-9.7
		c-7.3-6.5-11-14.7-11-24.7H1319.3z"/>
</g>
</svg>
